<?xml version="1.0" standalone="no"?>
<!DOCTYPE svg PUBLIC "-//W3C//DTD SVG 20010904//EN"
 "http://www.w3.org/TR/2001/REC-SVG-20010904/DTD/svg10.dtd">
<svg version="1.0" xmlns="http://www.w3.org/2000/svg"
 width="1024.000000pt" height="1024.000000pt" viewBox="0 0 1024.000000 1024.000000"
 preserveAspectRatio="xMidYMid meet">
<metadata>
Created by potrace 1.14, written by Peter Selinger 2001-2017
</metadata>
<g transform="translate(0.000000,1024.000000) scale(0.100000,-0.100000)"
fill="#000000" stroke="none">
<path d="M2621 9077 c-1 -15 -4 -16 -23 -6 -21 11 -22 11 -9 -5 13 -15 12 -16
-12 -7 -17 7 -28 7 -32 1 -9 -15 -27 -12 -20 3 4 6 0 4 -8 -5 -11 -14 -16 -15
-27 -5 -9 9 -11 9 -6 0 3 -6 2 -14 -4 -18 -5 -3 -10 -2 -10 3 0 5 -7 9 -15 9
-10 0 -12 -4 -5 -12 6 -7 3 -11 -11 -12 -13 -1 -17 2 -12 10 4 7 0 6 -10 -2
-9 -7 -15 -17 -12 -21 6 -10 -15 -8 -33 4 -17 11 -11 -15 8 -32 13 -11 12 -11
-7 -2 -25 12 -44 10 -55 -5 -5 -6 -8 -5 -8 3 0 6 -5 12 -11 12 -6 0 -8 -8 -5
-18 4 -12 1 -19 -8 -19 -9 0 -12 5 -9 10 4 6 1 7 -8 1 -8 -4 -23 -10 -34 -11
-11 -2 -22 -8 -24 -14 -2 -6 -12 -2 -24 8 -14 11 -17 12 -10 3 10 -13 8 -18
-7 -28 -12 -7 -21 -8 -25 -2 -4 6 -3 10 2 9 23 -4 25 3 5 17 -19 13 -21 18
-10 32 12 14 10 14 -12 2 -23 -12 -24 -12 -11 4 12 15 12 16 -5 9 -10 -3 -22
-11 -26 -17 -4 -5 -10 2 -13 16 -6 25 -32 45 -43 33 -3 -3 0 -5 7 -5 7 0 9 -5
5 -12 -4 -7 -3 -8 4 -4 7 4 12 3 12 -2 0 -5 -22 -8 -49 -8 -27 1 -47 4 -44 9
2 4 8 5 12 3 4 -3 8 2 8 11 0 11 -9 6 -28 -17 -31 -37 -61 -49 -53 -22 3 10
-1 7 -7 -6 -7 -13 -18 -21 -26 -18 -7 3 -12 2 -12 -2 1 -4 1 -18 0 -32 -1 -18
-4 -21 -10 -12 -11 18 -20 17 -38 -5 -8 -10 -11 -12 -7 -4 5 10 3 12 -5 7 -7
-5 -10 -15 -6 -24 5 -13 3 -13 -14 2 -14 12 -21 14 -26 6 -4 -7 -1 -16 6 -21
10 -7 5 -8 -13 -5 -15 3 -31 0 -34 -6 -5 -7 -2 -8 6 -3 8 5 11 4 7 -2 -3 -5
-20 -8 -37 -5 -21 3 -30 0 -30 -9 0 -11 -2 -11 -10 1 -5 8 -10 10 -10 5 0 -15
-40 -16 -46 -1 -3 7 -25 13 -52 15 -61 2 -85 -21 -86 -82 -1 -44 7 -58 38 -70
11 -4 16 -13 12 -22 -3 -9 0 -15 9 -15 9 0 12 -6 9 -15 -4 -8 -11 -12 -18 -8
-6 4 -6 0 2 -9 8 -10 9 -19 3 -22 -5 -4 -8 -15 -6 -26 2 -10 -4 -25 -13 -32
-15 -12 -16 -11 -3 5 7 9 10 17 5 17 -5 0 -17 -11 -26 -24 -13 -18 -13 -23 -3
-23 8 0 11 5 8 10 -3 6 -1 7 6 3 15 -10 5 -26 -17 -27 -11 0 -12 -3 -4 -6 6
-2 12 -9 12 -14 0 -6 -4 -8 -8 -5 -5 3 -9 -1 -9 -9 0 -8 4 -12 9 -9 4 3 5 -2
2 -11 -5 -13 -9 -13 -22 -3 -14 12 -14 11 -1 -9 7 -12 20 -24 29 -27 12 -3 11
-4 -2 -5 -10 0 -18 -6 -18 -12 0 -5 5 -7 12 -3 7 4 8 3 4 -4 -4 -6 -13 -9 -20
-6 -8 3 -17 0 -22 -7 -5 -8 -3 -10 7 -4 8 4 1 -5 -16 -20 -16 -14 -24 -23 -16
-19 9 5 12 3 7 -4 -4 -7 -15 -12 -24 -13 -10 0 -12 -3 -5 -6 9 -3 10 -10 3
-22 -5 -10 -6 -21 -3 -25 3 -3 1 -6 -6 -6 -7 0 -10 -3 -7 -8 2 -4 -2 -16 -10
-27 -8 -10 -14 -13 -14 -6 0 7 -5 9 -12 5 -7 -4 -8 -3 -4 5 4 6 12 8 18 5 7
-5 8 -2 3 6 -6 9 -4 11 5 5 9 -5 11 -4 6 3 -5 9 -12 8 -26 -1 -11 -6 -20 -15
-20 -19 0 -3 -7 -14 -16 -23 -15 -15 -18 -14 -43 1 -25 17 -26 17 -11 -2 8
-10 20 -22 25 -26 6 -5 6 -8 -2 -8 -6 0 -15 5 -18 10 -9 15 -25 2 -18 -15 4
-11 1 -13 -13 -8 -17 6 -17 5 -5 -10 7 -9 18 -14 24 -10 6 3 7 1 3 -6 -6 -9
-11 -9 -22 0 -21 17 -29 3 -10 -16 20 -21 21 -32 1 -15 -13 11 -14 10 -8 -6 6
-17 5 -18 -13 -4 -18 14 -18 13 1 -9 11 -14 14 -21 8 -17 -7 4 -13 3 -13 -2 0
-6 -7 -13 -16 -16 -10 -4 -13 -2 -8 7 5 7 0 6 -12 -3 -33 -26 -54 -52 -48 -61
3 -5 1 -9 -4 -9 -5 0 -7 -13 -4 -30 2 -16 9 -30 14 -30 5 0 7 -4 4 -9 -3 -5 0
-11 8 -14 20 -8 14 -33 -12 -57 -25 -24 -30 -39 -6 -20 8 8 14 9 13 4 -4 -22
2 -35 13 -28 7 4 8 3 4 -5 -6 -9 -11 -9 -22 0 -11 9 -14 9 -14 0 0 -7 -5 -9
-13 -5 -6 4 -4 -2 5 -13 22 -24 23 -37 4 -30 -10 4 -13 1 -10 -8 3 -8 13 -11
22 -9 15 5 16 5 1 -5 -16 -10 -16 -61 0 -61 4 0 7 -10 8 -22 0 -13 -1 -17 -4
-10 -3 6 -9 12 -14 12 -6 0 -7 -4 -4 -10 3 -5 -1 -20 -9 -32 -25 -35 -20 -74
14 -108 30 -30 47 -40 34 -18 -4 6 -3 8 3 5 11 -7 11 -57 -1 -75 -4 -7 -4 -12
0 -12 4 0 -1 -7 -12 -16 -10 -8 -14 -13 -8 -10 15 8 26 -21 12 -30 -7 -5 -8
-2 -3 6 5 8 4 11 -3 6 -13 -8 -7 -73 9 -93 6 -7 10 -13 8 -14 -2 0 -15 -3 -29
-5 -13 -2 -28 -10 -32 -17 -4 -6 -8 -7 -8 -2 -1 23 -29 -42 -30 -68 0 -34 53
-93 72 -80 19 11 39 13 32 2 -3 -5 -2 -9 3 -9 4 0 8 -15 8 -34 0 -19 -3 -32
-7 -30 -5 3 -6 10 -3 15 4 5 2 9 -3 9 -6 0 -13 -7 -16 -16 -3 -8 -2 -12 4 -9
6 3 10 -1 10 -10 0 -10 5 -13 12 -9 9 6 9 3 0 -9 -8 -9 -11 -20 -8 -26 3 -5
-1 -12 -10 -15 -23 -9 2 -38 26 -31 10 3 20 -1 23 -9 7 -18 -8 -30 -25 -20
-18 11 -48 12 -42 2 4 -5 12 -7 19 -4 8 3 19 -3 27 -12 11 -13 11 -14 -1 -7
-11 6 -13 4 -8 -8 4 -12 2 -14 -10 -10 -10 4 -14 2 -10 -4 4 -6 -3 -22 -16
-35 -12 -14 -44 -50 -72 -81 -27 -31 -60 -59 -73 -62 -15 -4 -20 -10 -15 -18
5 -8 2 -8 -9 1 -11 9 -18 10 -23 2 -3 -6 -11 -8 -16 -5 -5 4 -9 2 -9 -4 0 -5
3 -11 8 -14 4 -2 1 -2 -6 0 -25 6 -40 -22 -38 -73 1 -27 6 -56 12 -65 17 -29
94 -59 94 -37 0 5 7 2 16 -6 17 -18 28 -21 19 -7 -3 5 0 13 6 17 7 4 9 3 5 -4
-3 -6 1 -17 9 -25 17 -18 20 -31 5 -22 -9 6 -15 -22 -11 -54 2 -8 -2 -10 -10
-5 -8 4 -10 3 -5 -5 4 -6 11 -9 15 -6 5 2 17 -2 27 -10 19 -15 19 -15 0 -8
-13 4 -17 3 -12 -5 4 -7 2 -12 -3 -12 -6 0 -11 -7 -11 -15 0 -8 -4 -15 -8 -15
-14 0 -13 -70 1 -85 8 -8 17 -11 21 -8 3 4 6 1 6 -5 0 -7 8 -12 18 -12 20 0
42 -18 42 -34 0 -6 -5 -4 -10 4 -6 9 -10 10 -10 3 0 -6 4 -14 9 -17 13 -8 7
-41 -7 -42 -26 -3 -26 -6 -3 -15 l24 -9 -23 -25 c-13 -14 -18 -25 -12 -25 7 0
12 -5 12 -11 0 -5 -4 -8 -9 -5 -5 3 -11 -5 -13 -19 -4 -21 -3 -23 9 -14 11 9
12 8 7 -5 -3 -9 -21 -23 -40 -32 -19 -9 -34 -22 -34 -29 0 -7 -7 -15 -15 -18
-20 -8 -33 -63 -29 -122 3 -43 9 -55 40 -82 20 -18 52 -35 70 -39 18 -3 35
-13 39 -21 5 -14 3 -14 -12 -2 -9 8 -14 9 -10 2 4 -6 3 -14 -2 -18 -6 -3 -7
-13 -4 -22 4 -10 2 -14 -4 -10 -5 3 -10 0 -10 -8 0 -8 4 -12 9 -9 10 6 11 -10
1 -20 -13 -13 -10 -47 4 -42 11 4 11 1 3 -14 -6 -11 -8 -20 -4 -20 3 0 0 -8
-7 -17 -10 -11 -10 -14 -1 -9 7 4 12 2 12 -8 0 -8 -6 -17 -12 -19 -8 -3 -6 -6
5 -6 14 -1 16 -5 8 -19 -7 -13 -6 -23 1 -30 8 -8 8 -12 1 -12 -10 0 -10 -41 1
-59 4 -5 1 -13 -5 -17 -8 -5 -9 -3 -4 6 6 9 4 11 -4 6 -9 -6 -8 -13 6 -29 10
-11 12 -17 4 -12 -9 5 -12 3 -9 -6 3 -8 11 -13 17 -11 7 1 9 -2 6 -8 -4 -6
-10 -9 -13 -6 -3 4 -13 -4 -21 -16 -9 -13 -27 -24 -41 -26 -14 -1 -26 -7 -28
-12 -2 -6 -9 -10 -15 -10 -21 0 -44 -54 -40 -94 3 -36 26 -76 44 -76 4 0 20
-5 36 -12 37 -15 47 -16 55 -3 5 6 8 6 8 -2 0 -6 -5 -15 -11 -19 -8 -4 -7 -9
2 -16 10 -7 7 -8 -9 -5 -23 5 -23 5 -6 -14 16 -18 16 -19 -1 -19 -14 0 -13 -3
6 -19 20 -16 21 -21 8 -26 -10 -3 -14 -16 -13 -35 1 -17 -3 -30 -9 -30 -7 0
-5 -5 3 -10 12 -8 13 -11 1 -19 -11 -7 -11 -9 0 -13 12 -4 11 -8 -1 -23 -8
-10 -10 -16 -4 -12 7 4 14 0 18 -8 3 -8 0 -15 -7 -15 -8 0 -7 -4 3 -9 8 -6 17
-8 21 -5 4 2 11 -1 15 -7 4 -7 3 -9 -3 -6 -15 9 -23 -29 -9 -43 8 -8 7 -10 -7
-5 -9 4 -17 3 -17 -2 0 -13 33 -12 42 1 5 8 8 7 8 -1 0 -7 10 -22 23 -33 l22
-22 -27 13 c-15 6 -25 16 -22 20 3 5 -2 6 -12 2 -14 -5 -14 -7 5 -18 12 -6 18
-15 14 -20 -4 -4 -3 -5 4 -1 6 3 14 2 18 -4 3 -5 -1 -10 -9 -10 -9 0 -16 -4
-16 -8 0 -9 -32 -48 -94 -117 -33 -35 -43 -54 -42 -76 1 -16 -2 -29 -7 -29 -6
0 -5 -5 0 -13 6 -6 9 -21 7 -32 -5 -25 -6 -61 -1 -103 2 -18 0 -35 -5 -38 -5
-3 -5 -10 -1 -17 8 -14 10 -107 2 -107 -4 0 -3 -16 1 -35 4 -19 4 -35 0 -35
-4 0 -4 -17 0 -37 8 -33 42 -72 63 -73 5 0 5 -4 2 -10 -3 -5 -1 -10 5 -10 7 0
9 -7 6 -16 -5 -14 -4 -15 8 -5 12 10 13 9 9 -8 -3 -12 -9 -21 -14 -21 -22 0
-45 -42 -44 -80 1 -22 -4 -40 -9 -40 -6 0 -3 -5 7 -11 18 -10 18 -11 0 -26
-10 -8 -13 -12 -8 -9 6 2 17 1 25 -5 12 -7 11 -9 -5 -9 -15 0 -17 -2 -6 -9 7
-5 11 -13 7 -19 -3 -5 1 -27 10 -47 8 -20 11 -34 6 -31 -10 6 -27 -21 -24 -36
1 -5 -2 -8 -7 -8 -5 0 -8 -8 -6 -17 2 -10 4 -25 5 -33 0 -8 7 -24 15 -34 13
-17 17 -17 32 -5 16 12 17 12 6 -2 -10 -12 -10 -18 0 -29 9 -10 9 -11 0 -6 -7
4 -13 2 -13 -5 0 -8 -5 -7 -17 2 -14 12 -15 12 -9 0 5 -8 3 -17 -5 -23 -10 -7
-9 -8 6 -3 17 5 17 3 -5 -22 -14 -15 -17 -21 -7 -14 12 10 17 10 17 2 0 -7 6
-9 13 -6 6 4 3 -1 -7 -9 -11 -9 -14 -16 -8 -16 7 0 12 -4 12 -8 0 -10 -30 -9
-46 1 -6 3 -14 3 -18 0 -4 -4 -16 -8 -27 -10 -34 -5 -77 -46 -84 -79 -10 -46
11 -111 38 -120 12 -5 24 -8 27 -9 3 0 11 -4 18 -8 6 -5 16 -5 22 -2 12 7 70
-22 70 -35 0 -6 7 -10 16 -10 8 0 12 -4 9 -10 -3 -5 -1 -10 6 -10 7 0 9 -8 6
-21 -4 -16 -3 -18 9 -8 8 6 14 10 15 8 6 -23 4 -59 -4 -59 -5 0 -7 7 -3 15 3
8 1 15 -4 15 -6 0 -10 -4 -10 -10 0 -5 -8 -7 -18 -4 -14 5 -14 3 2 -10 13 -10
15 -16 7 -16 -11 0 -11 -3 -2 -14 10 -12 9 -13 -8 -9 -17 4 -19 1 -15 -27 4
-25 2 -30 -8 -24 -7 4 -2 -5 12 -20 18 -20 20 -25 7 -20 -15 5 -16 3 -7 -21
13 -33 13 -38 0 -30 -6 3 -7 -1 -4 -9 3 -9 11 -13 16 -10 6 4 5 -4 -2 -16 -7
-13 -8 -20 -2 -16 6 3 13 2 17 -4 3 -5 -2 -10 -11 -10 -16 0 -16 -1 2 -15 10
-8 14 -15 8 -15 -13 0 -33 -68 -26 -88 2 -6 8 -10 13 -6 5 3 9 2 8 -3 -4 -22
3 -34 26 -43 14 -5 25 -15 25 -21 0 -8 4 -8 15 1 13 11 14 10 9 -4 -3 -9 -11
-16 -16 -16 -6 0 -3 -12 7 -26 16 -24 16 -25 -2 -15 -17 8 -19 6 -19 -19 0
-16 2 -29 5 -28 19 2 24 -4 11 -12 -8 -5 -10 -10 -3 -10 7 0 9 -9 5 -22 -5
-21 -4 -22 14 -8 18 14 18 14 2 -6 -18 -21 -25 -74 -10 -74 5 0 17 -7 28 -16
19 -15 19 -16 -1 -10 -20 6 -20 6 -1 -9 11 -8 14 -15 7 -15 -9 0 -10 -11 -6
-37 5 -34 24 -57 50 -59 17 -2 65 -23 65 -29 0 -4 -4 -4 -9 -1 -10 7 -23 -19
-13 -28 10 -11 11 -37 1 -30 -5 3 -6 10 -3 16 4 7 2 8 -4 4 -12 -7 -5 -36 8
-36 5 0 7 -9 5 -21 -3 -17 -2 -19 10 -9 12 10 14 6 10 -25 -4 -27 -2 -34 7
-28 7 4 4 -6 -6 -22 l-19 -30 22 20 c16 14 22 15 19 5 -2 -9 3 -14 12 -12 12
3 11 0 -2 -15 -13 -14 -14 -22 -7 -33 9 -12 10 -12 5 3 -4 11 -2 16 5 11 6 -3
9 -14 6 -24 -3 -13 0 -17 9 -13 10 4 14 -3 14 -22 0 -24 2 -26 17 -14 13 11
13 8 -3 -16 -18 -27 -18 -29 -1 -22 10 4 16 3 12 -2 -3 -5 1 -12 7 -15 9 -3 7
-9 -6 -20 -18 -15 -18 -16 -2 -16 9 0 14 -5 11 -10 -4 -6 -12 -7 -18 -3 -7 4
-6 0 2 -10 9 -11 10 -17 2 -17 -6 0 -11 -4 -11 -10 0 -5 6 -7 13 -4 8 3 14 -2
14 -10 0 -8 -7 -12 -16 -9 -12 3 -11 2 2 -7 9 -6 15 -16 12 -21 -4 -5 -11 -6
-17 -3 -7 4 -8 2 -4 -5 4 -6 12 -9 17 -6 5 4 9 -6 9 -21 0 -22 2 -25 15 -14 8
7 12 17 8 23 -3 6 -1 7 5 3 12 -7 -2 -43 -23 -59 -14 -10 27 -3 45 8 12 7 13
6 3 -7 -7 -8 -9 -19 -5 -23 4 -5 2 -5 -5 -1 -6 3 -15 2 -18 -4 -4 -6 -1 -9 6
-8 8 2 13 -7 13 -22 1 -17 6 -25 19 -24 9 1 17 -2 17 -8 0 -5 4 -7 9 -3 6 3 8
-4 6 -17 -3 -13 -8 -24 -13 -26 -8 -2 -7 -76 2 -99 3 -8 10 -12 15 -9 5 3 12
-1 15 -10 3 -8 10 -13 15 -10 5 4 11 1 13 -5 3 -8 13 -6 33 7 16 10 26 13 22
7 -5 -7 -4 -13 2 -13 5 0 12 6 14 13 3 7 6 5 6 -5 1 -10 6 -18 11 -18 6 0 10
-5 10 -11 0 -5 -5 -7 -12 -3 -7 4 -8 3 -4 -4 4 -6 14 -8 23 -5 9 4 14 2 10 -3
-3 -6 4 -16 16 -24 20 -12 21 -12 9 3 -8 9 -12 22 -9 29 4 8 6 7 6 -4 1 -16
12 -23 34 -19 5 1 5 -4 1 -11 -12 -19 -14 -39 -3 -32 5 3 7 10 4 15 -4 5 -1 9
4 9 6 0 11 -4 11 -10 0 -5 8 -10 18 -10 14 0 15 -2 2 -10 -9 -6 -10 -10 -3
-10 6 0 15 5 18 10 5 8 11 8 19 1 7 -6 17 -7 21 -3 5 4 5 1 1 -6 -6 -11 -11
-11 -24 0 -15 12 -16 11 -4 -4 8 -10 17 -17 20 -16 16 5 52 -24 45 -35 -4 -7
1 -5 12 3 19 16 21 16 44 -3 12 -9 13 -9 7 1 -4 6 -2 12 3 12 6 0 11 -4 11
-10 0 -5 5 -10 11 -10 5 0 7 5 3 11 -4 7 1 7 16 -1 15 -8 20 -8 16 -1 -4 6 -2
11 3 11 10 0 15 -14 12 -33 0 -4 3 -7 9 -7 5 0 10 5 10 11 0 8 6 7 17 -2 11
-10 14 -10 9 -2 -4 7 -2 13 3 13 6 0 11 -4 11 -8 0 -5 7 -9 15 -9 11 0 12 4 3
14 -8 11 -7 12 6 7 9 -3 16 -12 16 -19 0 -8 4 -16 8 -19 11 -7 9 25 -3 44 -8
13 -6 13 8 1 9 -7 14 -18 10 -25 -4 -6 2 -4 12 4 10 8 16 10 12 3 -4 -6 -3
-15 3 -18 6 -4 9 -1 8 6 -2 6 3 14 11 17 9 3 12 0 9 -9 -4 -9 1 -15 11 -15 10
0 18 6 18 13 0 7 -5 9 -10 6 -6 -3 -7 -1 -3 5 4 6 13 9 21 6 10 -4 12 1 9 18
-5 20 -4 21 6 6 6 -9 17 -15 25 -12 8 4 15 2 15 -4 0 -11 18 -11 35 0 6 4 17
3 25 -2 9 -5 19 -5 27 2 9 7 13 7 13 -1 0 -6 5 -11 11 -11 5 0 7 6 3 13 -4 6
2 3 14 -7 26 -23 29 -34 5 -15 -14 11 -13 8 2 -11 24 -30 37 -40 50 -40 6 1 2
5 -9 11 -14 9 -15 13 -5 19 8 5 17 3 24 -7 10 -13 15 -14 36 -3 22 12 23 12
10 -3 -8 -10 -9 -17 -3 -17 6 0 14 5 17 10 4 6 10 8 15 5 5 -3 13 3 19 12 6
10 11 12 11 6 0 -7 5 -13 11 -13 5 0 8 4 5 8 -2 4 5 9 17 9 17 2 19 0 7 -7 -8
-5 -10 -10 -4 -10 6 0 17 7 24 15 7 8 9 15 6 15 -4 0 -1 7 8 15 17 18 36 20
36 4 0 -8 6 -7 17 2 11 10 14 10 9 2 -4 -7 -5 -13 -2 -13 2 0 12 -3 22 -7 13
-5 15 -3 9 8 -8 12 -6 12 8 0 12 -9 17 -10 17 -2 0 7 5 9 11 5 6 -3 15 0 20 7
7 11 9 11 9 -3 0 -12 6 -16 21 -13 17 4 19 2 9 -10 -7 -8 -9 -15 -4 -15 5 0 0
-8 -11 -17 -11 -8 -13 -13 -5 -10 8 3 24 8 35 12 l20 8 -20 -17 c-20 -17 -20
-17 4 -10 16 4 21 3 17 -5 -4 -6 -4 -12 1 -12 4 -1 21 -3 38 -5 16 -2 31 -8
33 -14 2 -5 9 -7 14 -4 7 4 8 2 4 -5 -4 -6 -12 -8 -18 -5 -7 5 -8 2 -3 -6 5
-9 4 -11 -4 -6 -6 4 -9 11 -6 15 2 5 -7 9 -22 9 -26 0 -26 -1 -4 -12 12 -7 19
-15 15 -19 -9 -8 32 -1 49 9 9 6 9 5 0 -7 -8 -10 -9 -19 -1 -29 8 -13 9 -12 5
2 -3 9 -1 19 6 21 17 5 47 -4 47 -14 0 -11 -23 -7 -32 6 -11 15 -10 -7 1 -24
8 -12 12 -12 24 -2 10 8 17 9 22 1 3 -5 1 -10 -6 -10 -7 0 -9 -3 -6 -6 4 -4
13 -2 20 4 8 7 17 8 21 4 4 -4 7 -2 6 3 -1 6 -2 19 0 30 l1 20 8 -20 c5 -11 7
-23 4 -28 -2 -4 0 -7 5 -7 6 0 13 7 16 16 3 8 10 13 15 10 5 -3 14 1 21 9 7 8
16 12 21 9 5 -3 6 2 3 11 -4 11 -2 14 9 9 10 -3 15 0 14 12 -1 11 6 18 20 19
12 1 20 -2 18 -6 -3 -4 2 -10 11 -13 23 -9 34 -7 34 5 0 5 -4 8 -9 4 -5 -3
-12 -1 -15 4 -4 5 -2 12 3 15 5 4 13 1 16 -4 5 -8 14 -5 28 7 l22 18 -19 -22
c-20 -24 -9 -32 12 -11 9 9 12 9 12 0 0 -6 -7 -15 -16 -20 -15 -8 -15 -10 0
-15 9 -4 15 -2 13 2 -1 5 3 9 8 9 6 0 9 -5 7 -11 -2 -7 2 -6 11 1 8 7 16 9 19
7 3 -3 4 7 2 22 -1 15 1 34 6 43 6 10 8 5 5 -18 -3 -26 0 -32 10 -28 8 3 17 0
21 -6 4 -6 3 -8 -4 -4 -17 11 -23 -11 -6 -25 8 -7 14 -8 13 -3 -3 14 12 44 22
44 6 0 5 -9 -1 -21 -7 -11 -9 -23 -6 -27 3 -3 6 0 6 8 0 10 3 10 14 1 9 -8 16
-8 20 -2 6 10 17 9 64 -5 13 -4 22 -2 22 5 0 5 -6 8 -13 5 -8 -3 -20 3 -28 13
-13 16 -12 17 4 4 12 -10 20 -11 30 -2 10 8 14 7 15 -4 1 -8 3 -22 4 -30 1 -8
5 -15 10 -15 5 0 6 11 4 24 -3 18 -1 23 10 19 8 -3 12 -9 9 -13 -8 -13 21 -20
33 -8 6 6 8 18 4 26 -5 14 -4 15 10 2 11 -11 12 -17 4 -22 -17 -12 3 -9 25 3
12 6 18 17 15 25 -8 22 2 17 15 -7 9 -17 8 -20 -2 -14 -8 5 -10 4 -5 -4 6 -8
12 -9 20 -2 9 7 16 7 25 -2 10 -9 11 -8 5 6 -4 12 -12 16 -23 12 -13 -5 -13
-4 -4 6 10 10 17 9 32 -5 11 -10 18 -23 17 -29 -2 -7 -1 -9 1 -4 3 4 9 4 15 1
6 -4 6 1 -1 14 -8 16 -7 23 7 33 15 13 16 12 3 -3 -12 -17 -9 -23 12 -19 5 1
6 -3 2 -9 -3 -5 0 -10 7 -10 9 0 9 -3 -2 -10 -9 -6 -10 -10 -3 -10 6 0 15 4
18 10 3 5 12 10 18 10 8 0 8 -3 -1 -9 -11 -7 -11 -11 0 -22 8 -8 17 -22 20
-31 7 -16 50 -18 81 -3 6 4 4 0 -5 -8 -21 -17 -23 -28 -5 -25 6 2 17 12 24 23
11 18 12 17 8 -13 -2 -18 0 -30 5 -27 5 3 11 1 15 -5 3 -5 12 -10 18 -10 7 0
6 4 -3 10 -13 8 -11 11 7 16 13 4 20 11 16 18 -3 6 -3 8 2 4 4 -4 13 -3 20 2
8 7 12 5 12 -5 0 -8 -4 -12 -8 -10 -3 3 -12 -1 -18 -9 -16 -19 8 -39 29 -24
12 8 12 9 -2 4 -10 -3 -20 -1 -23 4 -4 6 1 10 9 10 8 0 19 6 23 14 7 12 10 11
23 -2 13 -14 12 -15 -3 -9 -10 4 -16 3 -12 -2 10 -17 46 -8 39 9 -14 34 -15
44 -2 22 11 -18 16 -20 28 -10 12 11 12 10 1 -4 -11 -15 -2 -26 12 -15 2 1 11
-4 21 -12 14 -12 16 -12 10 3 -4 10 -13 15 -20 12 -8 -3 -11 0 -7 10 4 11 9
12 19 3 7 -6 18 -8 23 -4 7 4 8 -1 4 -12 -3 -10 -3 -15 2 -11 4 4 14 0 22 -10
8 -9 11 -11 7 -3 -11 21 -13 62 -4 56 5 -3 7 -12 3 -20 -4 -11 -1 -13 10 -9
20 7 39 -4 31 -18 -4 -6 -9 -5 -15 3 -4 7 -10 11 -14 8 -3 -3 4 -14 16 -25 13
-12 19 -14 17 -5 -2 7 3 16 11 19 10 3 11 0 5 -9 -6 -12 -5 -12 8 -1 10 8 19
9 22 3 7 -10 31 -9 42 2 4 3 -4 4 -16 2 -12 -2 -19 -1 -16 3 4 4 13 7 19 7 7
1 11 7 9 15 -2 10 0 11 11 2 8 -7 17 -9 20 -5 4 3 7 1 7 -7 0 -10 3 -10 15 0
9 7 18 10 22 6 3 -3 1 -6 -5 -6 -6 0 -9 -7 -5 -16 3 -8 11 -13 18 -10 7 2 18
-1 24 -7 6 -6 11 -7 11 -3 0 5 7 3 15 -4 9 -7 18 -10 22 -6 3 3 1 6 -6 6 -7 0
-9 5 -6 10 4 7 13 7 26 0 10 -6 19 -7 19 -3 0 4 5 1 10 -7 5 -8 10 -10 10 -4
0 14 42 13 52 -1 4 -5 6 5 3 22 -2 18 1 33 6 33 6 0 8 -8 5 -17 -3 -10 2 -29
10 -43 14 -23 14 -24 9 -2 -4 12 -3 22 2 21 4 -1 15 -1 23 0 11 1 11 4 2 13
-7 7 -12 16 -12 21 0 5 9 -1 19 -14 11 -13 23 -21 27 -16 4 4 -1 14 -12 23
-18 14 -18 14 5 3 21 -10 23 -9 18 5 -9 23 0 20 14 -5 8 -15 8 -19 0 -15 -6 4
-11 2 -11 -4 0 -7 6 -10 14 -7 7 3 23 -1 35 -9 11 -8 21 -11 21 -5 0 5 -5 11
-12 13 -7 3 -6 7 5 11 10 4 17 2 17 -6 0 -8 3 -7 9 2 8 12 12 12 25 2 9 -8 16
-9 16 -3 0 13 -29 24 -43 15 -7 -3 -9 -3 -5 2 4 4 0 14 -10 22 -15 13 -15 13
5 4 26 -13 36 -14 29 -3 -2 4 4 8 15 8 18 0 18 -2 4 -12 -14 -10 -13 -12 6
-17 14 -4 18 -10 13 -19 -4 -7 -3 -9 1 -5 14 12 15 38 2 30 -7 -3 -9 -2 -4 2
4 5 16 9 27 10 15 1 17 -2 9 -11 -7 -8 -6 -14 2 -20 8 -5 9 -3 4 6 -6 10 -4
12 9 7 9 -4 15 -3 12 1 -2 4 7 12 20 19 13 6 26 7 29 2 3 -4 13 -6 23 -3 14 5
15 4 2 -5 -13 -9 -12 -13 4 -28 15 -13 17 -14 8 -2 -11 14 -9 16 13 16 22 0
24 -2 13 -16 -12 -14 -11 -14 4 -2 21 16 13 35 -10 26 -9 -3 -13 -2 -8 2 4 4
18 8 31 8 16 1 21 -3 17 -15 -3 -8 -2 -12 3 -8 4 4 14 0 22 -10 8 -9 11 -11 7
-3 -4 8 -8 25 -10 38 -2 20 0 22 12 12 8 -6 14 -8 14 -4 0 4 7 2 15 -5 8 -6
19 -9 24 -6 5 4 13 1 17 -5 5 -8 3 -9 -6 -4 -8 5 -11 4 -7 -3 10 -14 40 -8 45
9 3 11 1 11 -7 -1 -9 -13 -11 -13 -11 3 0 21 13 22 30 2 7 -8 16 -13 20 -10 5
3 12 1 15 -5 5 -8 11 -8 19 -1 7 6 17 7 21 3 5 -4 5 -2 1 5 -4 7 3 17 16 24
19 9 21 9 11 -2 -20 -20 -15 -31 6 -13 11 10 17 25 14 38 -3 18 -2 18 7 -3 9
-20 12 -22 27 -10 12 10 14 10 9 1 -4 -7 -1 -12 8 -12 9 0 16 -5 16 -10 0 -15
33 -8 47 10 10 13 12 11 8 -8 -2 -13 0 -20 6 -17 5 4 7 11 4 16 -4 5 0 9 7 9
8 1 6 6 -6 15 -11 8 -14 15 -7 15 7 0 10 4 6 9 -3 5 -1 12 4 16 6 3 8 -3 6
-15 -5 -25 9 -34 25 -15 7 8 18 15 24 15 6 0 2 -7 -9 -16 -11 -8 -19 -18 -18
-22 1 -4 -1 -9 -4 -12 -4 -3 -3 2 2 10 6 12 5 13 -5 3 -8 -7 -11 -16 -7 -20 4
-3 17 3 30 15 13 12 29 22 36 22 7 0 9 5 4 13 -10 16 -14 41 -5 32 4 -4 7 -10
7 -13 0 -4 4 -13 9 -20 6 -11 13 -9 31 8 19 18 23 19 28 6 4 -10 13 -13 23 -9
11 4 15 3 10 -5 -3 -6 -1 -14 4 -17 8 -5 5 -14 -6 -28 -16 -20 -16 -20 6 1 20
18 22 24 11 31 -8 6 -9 11 -3 15 6 3 13 2 17 -4 9 -14 28 -12 22 3 -2 6 -10
11 -16 9 -6 -1 -11 2 -11 8 0 5 5 10 11 10 5 0 8 4 5 8 -9 14 34 7 52 -9 17
-15 65 -21 56 -8 -2 4 3 10 12 13 15 6 15 8 -1 26 -10 11 -22 17 -28 13 -6 -4
-7 -1 -3 6 6 9 12 9 25 -3 10 -9 20 -14 23 -11 3 3 5 -5 4 -17 -1 -17 5 -23
21 -24 30 -2 49 11 29 19 -8 3 -18 2 -21 -3 -4 -6 -12 -10 -18 -10 -7 0 -4 7
6 14 17 14 71 10 62 -4 -3 -4 2 -10 10 -13 9 -4 12 -1 9 8 -4 10 0 13 15 10
13 -2 19 0 15 6 -3 6 5 8 20 5 15 -3 24 -1 21 5 -4 5 -10 7 -15 4 -4 -3 -13 2
-20 10 -9 10 -9 15 -1 15 6 0 11 -4 11 -8 0 -4 9 -8 21 -9 12 -1 18 3 16 10
-3 7 -10 11 -16 9 -7 -1 -9 2 -5 9 5 9 14 3 30 -17 20 -24 22 -25 18 -7 -6 21
-3 22 34 18 35 -3 40 -2 35 13 -7 18 -5 17 17 -12 10 -13 10 -17 3 -12 -7 4
-13 2 -13 -3 0 -15 13 -14 29 2 10 8 12 8 7 0 -3 -6 -1 -15 5 -19 8 -4 9 -3 5
4 -4 7 5 10 29 8 20 -2 33 -1 30 3 -4 3 -16 6 -27 6 -12 0 -23 7 -25 15 -3 9
-1 11 4 5 12 -15 33 -17 33 -3 0 9 4 8 11 -2 8 -11 12 -12 16 -2 7 17 20 15
20 -3 0 -8 -4 -12 -9 -9 -4 3 -8 0 -8 -6 0 -7 6 -10 13 -7 6 2 19 1 28 -4 11
-5 16 -3 16 7 0 9 -6 13 -16 9 -12 -5 -13 -3 -5 5 14 14 42 3 47 -18 4 -15 5
-15 6 1 1 16 13 22 35 18 14 -3 36 21 29 32 -3 6 -1 7 6 3 6 -4 8 -13 5 -19
-4 -7 -4 -9 1 -5 4 4 14 3 20 -2 15 -12 29 15 18 33 -5 8 -2 8 9 0 8 -7 18
-10 21 -6 4 3 7 0 7 -8 0 -11 2 -11 10 1 6 10 10 11 10 3 0 -7 5 -13 11 -13 8
0 8 4 0 14 -7 8 -8 16 -4 19 9 5 34 -18 27 -25 -2 -3 3 -5 11 -5 11 0 9 7 -10
27 -14 14 -22 30 -18 35 5 4 2 5 -5 1 -7 -4 -9 -13 -5 -19 4 -7 -1 -6 -10 2
-10 8 -15 16 -12 19 9 10 45 12 45 4 0 -5 7 -9 15 -9 11 0 12 4 3 14 -8 11 -7
12 5 7 21 -8 30 -34 17 -49 -14 -16 -3 -24 27 -19 16 3 22 1 18 -6 -4 -7 1 -6
13 1 12 7 19 16 16 20 -2 4 3 12 11 19 10 9 15 9 15 1 0 -6 -5 -11 -11 -11 -5
0 -8 -4 -4 -9 3 -6 14 -8 25 -6 11 2 23 -1 26 -7 5 -7 2 -8 -6 -3 -9 5 -11 4
-6 -3 4 -7 2 -12 -4 -12 -6 0 -8 -5 -4 -11 4 -7 13 -1 24 16 14 22 18 24 24
10 4 -11 2 -14 -7 -9 -6 4 -3 -2 7 -14 11 -12 20 -22 22 -22 4 0 -4 38 -11 53
-4 6 0 4 8 -5 16 -20 53 -25 41 -6 -4 7 -3 8 4 4 7 -4 12 -1 12 6 0 10 3 9 10
-2 5 -8 12 -11 16 -7 4 4 13 2 21 -5 7 -6 17 -7 21 -3 4 4 1 10 -5 12 -7 3
-13 9 -13 15 0 6 6 5 15 -2 9 -8 13 -21 9 -33 -4 -14 -2 -18 7 -15 8 3 14 13
14 23 0 10 7 20 15 22 12 4 12 3 1 -5 -10 -8 -11 -14 -1 -28 7 -12 10 -13 7
-3 -3 8 3 20 12 26 14 9 18 8 18 -3 0 -7 -4 -11 -9 -8 -4 3 -8 0 -8 -5 0 -20
20 -11 30 12 8 20 15 9 11 -16 -1 -5 3 -6 9 -2 5 3 10 13 10 21 0 8 3 14 8 15
4 0 15 2 25 4 9 2 17 0 17 -5 0 -4 11 -7 24 -6 16 1 22 6 18 16 -4 12 -2 13 9
3 7 -7 17 -13 22 -13 5 0 -1 9 -14 21 -13 11 -19 18 -12 14 11 -5 31 19 31 38
0 5 4 12 8 15 4 4 5 -2 2 -14 -3 -13 0 -21 8 -21 7 0 10 5 7 11 -4 6 4 2 16
-8 17 -16 20 -16 16 -4 -4 9 -1 19 6 24 7 4 10 3 6 -2 -3 -6 -2 -16 4 -24 7
-12 9 -12 9 -1 0 10 3 11 14 2 9 -8 16 -8 20 -2 4 6 14 7 24 4 15 -6 15 -4 4
9 -11 14 -10 16 7 11 19 -5 26 -15 22 -36 -1 -5 3 -6 9 -2 6 3 7 12 3 18 -4 7
0 6 10 -2 14 -11 17 -11 17 0 0 9 3 10 8 3 4 -6 19 -10 33 -9 34 2 69 -11 69
-27 0 -10 -3 -9 -9 1 -5 8 -16 11 -24 8 -8 -3 -19 -1 -23 3 -5 5 -15 5 -24 -1
-13 -9 -13 -10 1 -6 9 3 21 1 27 -5 6 -6 24 -11 40 -13 24 -2 29 1 25 14 -5
13 -3 14 8 4 20 -19 40 -16 32 4 -6 15 -5 16 9 3 16 -14 15 -16 0 -29 -16 -13
-16 -13 1 -7 10 3 21 6 23 6 2 0 4 7 4 15 0 8 -4 15 -10 15 -5 0 -10 5 -10 11
0 8 4 8 15 -1 8 -6 18 -9 24 -6 5 3 7 -2 4 -13 -3 -10 -1 -21 4 -24 5 -3 8 10
8 28 -2 37 18 53 41 34 8 -6 14 -8 14 -5 0 4 8 2 18 -3 13 -7 23 -6 30 1 7 7
12 9 12 5 0 -4 9 -3 20 3 16 8 24 8 35 -4 16 -16 20 -31 7 -22 -5 3 -9 -1 -9
-8 0 -7 6 -13 13 -13 7 0 11 4 8 9 -3 4 -1 8 5 8 6 0 8 8 5 18 -5 13 -4 14 4
3 6 -8 8 -21 5 -30 -4 -11 0 -9 10 4 8 11 13 23 11 27 -2 4 -1 9 4 12 12 7 11
-26 -1 -44 -9 -12 -9 -13 3 -2 19 17 30 15 30 -5 0 -15 2 -16 10 -3 5 8 10 11
10 6 0 -6 5 -5 12 2 8 8 18 6 40 -10 l30 -21 -13 21 c-7 11 -16 19 -20 16 -4
-2 -11 0 -14 6 -5 8 -11 8 -19 1 -9 -8 -18 -6 -32 4 -10 8 -14 15 -7 15 6 0
15 -5 18 -10 5 -8 12 -7 23 2 12 11 16 11 20 0 3 -10 7 -10 20 0 10 7 14 9 10
4 -8 -10 32 -57 43 -50 4 2 10 0 14 -6 3 -5 11 -10 18 -10 6 0 3 6 -5 13 -16
11 -16 13 0 27 14 13 15 12 9 -3 -6 -15 -3 -17 13 -12 12 4 20 2 20 -5 0 -6
-4 -9 -8 -6 -5 3 -9 -1 -9 -9 0 -8 4 -15 9 -15 4 0 8 5 8 10 0 6 12 10 26 10
14 0 23 4 19 10 -3 5 -1 10 5 10 7 0 9 -8 5 -19 -3 -11 -1 -22 4 -26 7 -4 8 1
4 11 -5 13 -3 15 7 9 8 -5 11 -3 8 6 -7 22 33 48 58 38 16 -6 24 -4 28 7 3 9
11 12 17 8 8 -5 9 -3 4 6 -6 10 -3 12 13 8 12 -4 20 -2 16 3 -8 14 -25 11 -48
-9 -17 -14 -19 -14 -8 0 10 13 10 17 0 22 -7 3 -4 4 7 3 12 -1 19 3 17 11 -1
8 2 11 7 8 5 -3 12 1 15 10 3 8 11 12 17 8 7 -4 9 0 5 14 -4 11 -2 23 4 27 5
3 10 1 10 -5 0 -6 5 -8 11 -4 6 3 4 -5 -6 -19 -11 -17 -13 -27 -5 -32 6 -3 9
-3 8 2 -1 4 3 18 10 31 7 12 10 27 7 32 -4 6 -1 9 7 8 7 -2 12 3 10 10 -1 8 2
11 8 7 7 -4 7 -13 -1 -26 -17 -33 -5 -31 13 2 10 17 13 27 8 24 -5 -3 -8 4 -7
15 1 14 6 18 19 14 10 -3 18 0 18 7 0 8 5 8 17 -2 15 -12 16 -12 8 1 -8 13 -7
13 8 1 11 -9 17 -10 17 -2 0 6 7 11 15 11 28 0 59 89 41 119 -7 10 -6 12 4 6
9 -6 12 -4 8 6 -3 8 6 22 21 33 l26 20 -19 -22 c-11 -12 -16 -22 -11 -22 18 0
33 35 23 54 -8 15 -7 18 4 14 9 -4 14 2 15 15 1 12 12 30 25 40 13 10 17 16
10 12 -6 -3 -12 -1 -12 6 0 6 8 9 19 6 17 -4 19 -2 10 21 -9 23 -8 24 7 11 16
-13 16 -12 6 8 -8 14 -9 24 -2 28 6 4 7 11 4 17 -4 7 -2 8 5 4 9 -6 9 -11 1
-21 -8 -10 -8 -15 1 -21 7 -4 9 -3 5 4 -3 6 2 15 11 21 10 6 12 11 6 11 -7 0
-13 5 -13 11 0 6 8 8 18 5 14 -5 14 -4 -2 9 -19 15 -19 15 5 15 18 0 20 3 10
9 -8 5 -11 16 -8 24 3 8 0 20 -6 27 -8 8 -8 11 -1 7 6 -4 20 1 30 9 14 12 15
14 3 11 -9 -3 -22 -1 -30 4 -11 8 -9 9 6 7 14 -2 20 3 20 17 1 11 7 19 14 17
7 -1 10 2 6 8 -5 8 -11 7 -21 -1 -12 -10 -17 -9 -27 0 -9 10 -8 11 5 6 13 -5
19 0 25 22 4 15 6 34 5 41 -2 6 3 12 9 12 7 0 9 3 6 6 -4 4 -14 1 -22 -6 -14
-12 -15 -11 -4 13 7 15 17 27 23 27 5 0 2 6 -8 13 -21 15 -17 69 5 75 11 3 11
1 -1 -7 -8 -6 -10 -11 -4 -11 18 0 24 13 13 27 -9 10 -7 13 6 13 17 0 17 1 -1
22 -13 16 -14 19 -2 10 10 -8 19 -9 22 -3 3 5 0 11 -6 14 -8 3 0 17 24 38 20
19 36 37 37 42 1 4 1 8 2 10 5 11 5 57 0 57 -3 0 -7 14 -8 30 -1 17 2 30 8 30
6 0 7 -5 3 -12 -4 -7 -3 -8 5 -4 6 4 8 12 5 18 -4 6 -7 32 -8 59 -1 26 -4 51
-8 54 -4 4 3 16 15 27 12 11 15 17 7 13 -10 -4 -9 -2 3 8 18 15 24 33 8 22 -5
-3 -13 0 -17 6 -5 8 -3 9 6 4 10 -6 12 -3 7 14 -3 13 -3 20 0 17 12 -12 76 41
78 64 0 3 4 10 8 17 4 6 3 14 -3 18 -6 4 -8 11 -4 16 3 5 1 16 -6 24 -6 8 -11
22 -10 32 4 35 0 42 -21 38 -12 -3 -18 -1 -15 3 4 4 12 8 17 8 5 1 12 2 15 3
4 0 0 9 -7 19 -13 15 -12 16 3 4 12 -10 18 -10 24 -1 4 7 3 10 -2 7 -5 -3 -14
0 -21 7 -10 10 -9 14 2 19 8 3 15 0 15 -6 0 -6 3 -9 6 -6 7 8 -18 48 -30 48
-4 0 -3 -7 4 -15 10 -12 10 -15 -1 -15 -9 0 -15 12 -15 30 -1 24 1 28 11 20 9
-8 15 -8 20 0 4 6 1 9 -6 8 -6 -2 -14 3 -17 11 -3 9 0 11 9 7 8 -4 3 2 -10 13
-15 14 -31 19 -45 16 -15 -5 -17 -4 -7 3 11 8 11 10 0 14 -9 3 -7 10 9 26 12
12 27 22 32 22 6 0 9 6 8 13 -2 6 3 11 10 9 6 -1 11 1 11 5 -3 20 2 34 11 28
5 -3 10 -2 10 2 0 5 7 18 15 29 15 19 15 19 9 -1 -4 -14 0 -11 13 8 10 15 22
25 28 23 5 -2 18 1 28 6 11 5 17 5 17 -1 0 -6 7 -8 15 -5 8 4 12 10 9 15 -3 5
2 9 10 9 19 0 46 38 40 55 -3 7 0 16 5 20 6 3 9 11 6 16 -4 5 -8 18 -10 30 -5
24 -25 52 -33 45 -2 -3 -13 5 -23 17 -10 12 -18 19 -19 15 0 -4 -11 -3 -24 2
-13 5 -27 6 -30 2 -13 -12 -36 -10 -36 4 0 8 -6 14 -12 14 -10 0 -9 3 1 9 11
7 11 9 0 14 -12 4 -12 7 0 18 12 12 13 12 6 0 -5 -10 -4 -12 4 -7 6 4 9 12 5
17 -3 5 -9 7 -14 4 -4 -3 -11 2 -14 11 -4 10 -2 13 6 8 7 -5 8 -3 4 5 -5 7 0
21 10 32 24 27 29 163 5 154 -10 -4 -9 1 5 16 10 12 14 20 8 16 -12 -7 -13 57
-1 69 10 11 9 26 -2 20 -5 -4 -8 2 -6 11 2 10 4 21 4 26 1 4 5 6 10 5 5 -2 9
2 9 7 0 6 -4 9 -9 7 -5 -1 -9 5 -9 13 0 8 6 13 13 11 6 -1 9 -1 5 1 -12 7 -9
31 4 36 10 4 9 6 -1 6 -11 1 -10 6 5 22 19 22 19 22 -3 10 -31 -16 -38 3 -11
28 13 13 16 21 9 21 -7 0 -11 6 -8 14 3 7 0 19 -6 26 -9 10 -9 11 1 6 7 -5 12
0 13 11 1 10 3 27 4 38 2 11 5 33 7 50 2 26 28 65 43 65 3 0 5 3 4 6 0 4 5 11
13 15 10 7 9 9 -4 9 -9 0 -20 4 -23 10 -4 6 1 7 11 3 14 -5 15 -3 5 15 -7 14
-8 23 -1 27 6 4 10 12 9 18 -3 24 1 37 12 37 8 0 9 -4 0 -13 -6 -8 -8 -17 -4
-20 3 -4 0 -13 -6 -21 -8 -10 -9 -16 -1 -21 5 -3 11 2 12 12 0 10 2 24 2 31 1
7 8 17 16 22 12 8 12 10 1 10 -9 0 -10 4 -4 13 6 6 9 20 8 30 -2 9 2 17 8 17
7 0 6 4 -3 9 -20 14 -28 5 -25 -27 1 -19 -2 -29 -11 -29 -10 0 -11 4 -3 13 7
9 5 15 -8 23 -14 8 -15 10 -3 11 13 0 13 2 0 11 -13 9 -13 10 2 6 9 -3 19 1
22 9 3 9 9 13 14 10 4 -2 14 -1 21 3 9 6 10 11 2 15 -6 4 -11 3 -11 -3 0 -5
-9 -8 -20 -6 -11 2 -18 1 -16 -4 3 -4 -8 -7 -24 -7 -16 0 -27 3 -24 7 2 5 12
5 21 2 10 -4 14 -2 9 5 -3 6 -1 14 5 18 8 4 9 3 5 -5 -6 -8 -1 -8 18 0 14 7
22 17 19 22 -5 8 -8 7 -11 -1 -6 -19 -18 -14 -19 8 -1 13 2 18 9 14 7 -4 8 -2
4 5 -4 6 -12 8 -18 5 -7 -5 -9 -2 -5 8 4 12 1 14 -16 10 -12 -3 -16 -7 -9 -10
7 -2 17 -13 23 -24 8 -15 8 -19 0 -14 -6 4 -11 2 -11 -3 0 -20 -36 10 -37 30
-1 11 1 19 5 19 4 0 18 10 32 21 14 11 18 18 10 14 -8 -4 -3 4 12 17 15 14 36
44 46 66 10 23 21 41 23 39 2 -1 3 0 2 1 -1 2 5 23 14 45 17 46 22 224 7 248
-4 8 -10 22 -11 32 -5 31 -43 97 -80 137 -19 22 -32 40 -27 40 5 0 -2 7 -14
16 -15 10 -21 22 -17 32 3 9 3 13 -1 9 -9 -9 -35 13 -28 24 3 5 -1 19 -7 31
-10 20 -10 21 2 11 12 -9 14 -3 12 38 -1 28 2 49 8 49 6 0 7 5 4 10 -4 6 -12
8 -18 4 -7 -3 -4 1 6 9 20 16 23 32 5 21 -9 -5 -9 -2 1 9 9 12 10 17 2 17 -7
0 -9 5 -6 10 4 6 12 7 18 3 7 -3 3 4 -8 17 -11 13 -14 20 -7 16 6 -4 12 -2 12
3 0 6 -6 11 -12 12 -7 0 -4 4 7 9 18 8 18 9 -5 9 -14 1 -20 5 -15 9 6 4 10 22
11 39 1 24 -2 30 -11 23 -8 -7 -12 -5 -12 5 0 8 4 15 9 15 5 0 3 6 -4 14 -7 8
-17 11 -22 8 -5 -3 -6 0 -2 7 6 9 11 9 23 -1 15 -12 15 -11 3 9 -8 12 -19 19
-25 15 -5 -3 -3 3 5 13 12 15 12 17 1 10 -11 -6 -13 -3 -8 14 4 18 3 20 -9 10
-13 -10 -13 -8 -5 14 7 18 7 28 -1 33 -7 5 -8 3 -3 -6 6 -9 4 -11 -4 -5 -9 5
-10 10 -2 18 8 8 6 16 -7 31 -9 11 -11 16 -4 12 7 -4 12 -2 12 6 0 10 3 9 11
-2 9 -12 10 -11 6 8 -3 12 -2 20 2 17 12 -7 68 49 76 76 22 68 7 130 -41 175
-19 18 -34 37 -34 43 0 6 -5 11 -11 11 -5 0 -7 -5 -3 -12 4 -7 3 -8 -5 -4 -8
5 -9 12 -3 19 5 7 8 21 6 32 -3 11 -5 28 -6 38 -1 9 -6 17 -11 17 -5 0 -3 8 4
17 12 14 12 16 0 8 -11 -6 -13 -2 -9 19 3 14 1 29 -3 32 -5 3 -9 10 -9 15 0 6
4 8 9 5 5 -4 7 3 4 14 -3 12 -2 20 3 19 23 -4 36 4 54 33 15 26 17 35 7 47 -9
12 -9 13 1 7 16 -10 15 0 -4 29 -9 14 -13 33 -10 42 6 14 4 14 -15 -3 -12 -10
-19 -13 -15 -6 4 6 3 12 -2 12 -6 0 -13 7 -16 16 -5 13 -4 14 7 6 14 -12 27
-7 27 10 0 5 -6 6 -12 3 -7 -4 -2 3 12 15 14 12 18 18 10 14 -12 -6 -13 -5 -3
7 10 12 10 18 0 29 -10 10 -9 11 2 5 11 -6 13 -4 8 9 -5 14 -3 15 13 6 10 -5
21 -6 24 -1 3 4 16 8 28 7 13 -1 29 4 36 11 8 7 18 11 22 8 9 -6 36 34 32 48
-1 4 3 7 8 7 13 0 13 51 0 85 -6 15 -19 29 -30 32 -11 3 -20 9 -20 14 0 5 -9
9 -21 9 -11 0 -30 5 -42 11 -31 16 -168 155 -160 163 3 3 -1 6 -11 6 -9 0 -14
4 -11 10 3 6 0 10 -8 10 -8 0 -18 7 -21 16 -3 8 -2 12 4 9 6 -3 10 -1 10 5 0
8 -10 10 -27 6 -16 -3 -22 -3 -15 0 6 3 10 10 6 15 -3 5 0 8 8 7 8 -2 13 6 12
19 0 19 4 22 25 18 25 -5 25 -5 4 4 -16 7 -21 15 -16 27 5 13 3 15 -8 9 -8 -5
-6 1 4 13 12 12 16 26 11 34 -5 9 -2 8 11 -2 17 -14 18 -14 6 8 -11 20 -8 26
12 23 4 0 7 3 7 8 0 5 8 8 18 6 29 -4 71 52 70 94 -1 36 -38 86 -54 73 -5 -4
-2 1 5 11 11 14 11 17 0 17 -10 1 -9 4 3 11 9 5 15 16 12 24 -4 8 -9 13 -13
11 -3 -2 -12 3 -20 11 -12 13 -11 14 9 8 15 -5 20 -4 16 4 -4 6 -14 11 -22 11
-8 0 -14 7 -14 16 0 9 5 12 13 8 7 -5 7 -1 -2 10 -12 14 -12 19 -2 26 9 5 10
10 2 14 -6 4 -11 2 -11 -3 0 -6 -5 -11 -10 -11 -7 0 -7 6 0 19 7 14 6 21 -3
25 -8 3 -3 13 16 30 16 15 34 23 40 20 7 -4 9 -4 5 0 -4 5 -2 20 3 34 7 18 6
28 -3 34 -7 4 -8 8 -2 8 6 0 11 7 11 15 0 8 -4 15 -8 15 -4 0 -10 7 -13 16 -3
9 -2 12 4 9 6 -4 10 -3 9 2 -1 4 0 10 1 13 7 18 5 48 -3 43 -5 -3 -7 0 -5 8 3
8 1 25 -4 38 -6 16 -4 28 4 39 11 13 10 14 -9 4 -37 -20 -45 -10 -17 24 14 18
15 18 4 -6 -11 -24 -10 -24 4 -6 19 24 20 36 4 36 -9 0 -8 4 2 10 12 8 12 10
1 10 -10 0 -11 3 -2 14 8 10 9 16 1 21 -6 3 -8 11 -5 16 3 5 -2 6 -12 3 -16
-5 -16 -4 -3 8 20 18 18 102 -4 124 -9 8 -13 21 -10 27 5 8 3 8 -6 0 -11 -10
-17 -8 -32 9 -23 26 -23 35 -1 17 15 -13 15 -12 5 8 -17 31 -15 35 11 22 l22
-12 -20 20 c-11 11 -23 19 -26 17 -4 -2 -9 5 -12 15 -4 15 -1 18 12 13 14 -5
14 -4 2 11 -7 9 -17 14 -22 12 -4 -3 -6 4 -4 15 2 11 -7 33 -23 52 -15 18 -22
29 -16 25 7 -4 15 0 18 9 8 22 8 26 -4 19 -12 -7 -2 23 14 44 9 12 8 13 -4 6
-30 -18 -45 -14 -20 6 14 11 21 19 15 18 -23 -3 -36 2 -30 11 4 6 10 8 14 6 4
-3 8 1 8 9 0 8 -3 14 -6 13 -19 -2 -24 4 -11 12 13 8 12 10 -3 10 -12 0 -16 4
-10 13 4 6 9 21 10 32 3 17 1 18 -8 5 -8 -12 -9 -9 -4 13 3 17 2 26 -4 23 -5
-4 -7 6 -5 24 4 20 1 30 -8 30 -9 0 -9 3 2 10 12 8 12 10 1 10 -11 0 -9 5 5
22 16 19 16 20 1 9 -9 -8 -21 -11 -24 -7 -4 4 -1 11 6 15 11 7 9 11 -5 20 -14
8 -15 11 -4 11 13 0 13 1 0 10 -12 8 -12 10 5 11 15 0 13 3 -9 11 l-29 11 24
13 c13 7 18 13 10 14 -11 0 -11 3 0 16 12 15 11 16 -11 9 -23 -7 -23 -7 -7 9
19 19 13 40 -8 32 -9 -3 -12 3 -11 18 2 13 -3 31 -11 41 -7 11 -13 13 -13 6 0
-7 -5 -9 -10 -6 -6 4 -8 11 -5 16 4 5 1 9 -5 9 -7 0 -10 -7 -6 -15 3 -8 3 -15
1 -15 -10 0 -50 45 -47 53 1 5 -2 5 -9 2 -7 -5 -3 -16 13 -34 l23 -26 -28 24
c-15 14 -26 32 -25 40 2 11 -6 17 -25 19 -23 3 -27 7 -22 25 4 12 3 18 -2 12
-12 -15 -33 -17 -33 -3 0 9 -3 9 -12 0 -15 -15 -31 -16 -22 0 4 7 3 8 -4 4 -7
-4 -12 -1 -12 6 0 10 -2 10 -9 -1 -5 -8 -14 -10 -21 -6 -9 6 -11 4 -6 -4 5 -8
3 -12 -5 -10 -36 4 -60 -2 -53 -13 5 -8 0 -7 -11 2 -17 14 -18 13 -12 -2 5
-13 1 -16 -16 -12 -12 3 -26 6 -32 7 -5 2 -16 6 -22 10 -7 5 -13 4 -13 0 0 -5
6 -15 13 -23 6 -7 -2 -4 -19 8 -17 12 -35 17 -40 13 -14 -13 -67 -23 -60 -12
4 6 -4 8 -20 5 -19 -3 -24 -1 -18 8 5 9 2 8 -10 -1 -24 -20 -66 -21 -67 -1 -1
8 -5 4 -9 -10 -5 -16 -8 -19 -9 -8 -1 22 -17 32 -27 17 -4 -8 -3 -9 4 -5 7 4
12 3 12 -3 0 -6 -12 -8 -32 -4 -22 4 -29 3 -24 -5 5 -8 1 -10 -10 -5 -13 5
-15 3 -9 -8 8 -12 6 -12 -8 0 -18 14 -13 36 5 25 7 -4 8 -2 4 4 -5 9 -12 9
-26 0 -10 -7 -16 -17 -12 -23 4 -7 1 -7 -9 1 -20 14 -42 12 -46 -6 -4 -13 -3
-13 6 0 7 9 11 10 11 3 0 -21 -18 -24 -32 -5 -21 30 -132 16 -154 -19 -4 -7
-3 -10 4 -5 6 3 14 2 17 -4 4 -6 1 -9 -6 -8 -7 2 -13 -3 -14 -9 0 -14 -9 -17
-28 -10 -9 4 -8 8 3 16 9 6 10 11 3 11 -6 0 -13 6 -16 13 -2 6 -3 4 -2 -5 2
-10 -1 -18 -6 -18 -5 0 -9 4 -9 8 0 5 -10 8 -22 7 -13 -2 -22 -8 -20 -14 1 -8
-2 -9 -10 -4 -7 4 -24 8 -38 8 -14 0 -24 5 -23 10 1 6 -16 10 -37 10 -26 0
-36 -4 -33 -12 3 -7 10 -10 17 -6 6 4 5 -1 -3 -10 -16 -20 -22 -22 -18 -4 1 7
-6 11 -18 9 -15 -2 -16 0 -7 6 11 7 11 12 -2 24 -8 9 -12 18 -9 22 4 3 -1 6
-10 6 -10 0 -17 4 -17 8 0 4 -16 8 -35 9 -19 0 -35 -4 -35 -9 0 -6 -6 -8 -14
-5 -14 6 -48 -27 -39 -37 4 -3 1 -6 -6 -6 -8 0 -11 -6 -7 -16 3 -8 2 -12 -4
-9 -6 3 -10 1 -10 -6 0 -7 -6 -4 -14 6 -8 11 -12 23 -10 27 2 4 0 9 -5 12 -5
4 -7 -8 -5 -26 l5 -33 -16 30 c-18 34 -31 47 -23 25 4 -10 -2 -15 -19 -16 -22
-2 -23 -1 -6 12 22 17 10 18 -20 2 -20 -10 -21 -10 -8 6 8 9 11 19 7 23 -3 3
-6 1 -6 -5 0 -7 -12 -12 -26 -12 -16 0 -23 -4 -18 -12 4 -7 3 -8 -4 -4 -6 4
-8 14 -5 22 5 13 3 14 -13 6 -20 -11 -61 8 -47 21 3 4 -1 7 -11 7 -9 0 -15 -4
-12 -8 2 -4 -6 -8 -19 -8 -15 0 -21 4 -18 14 5 11 7 11 14 0 5 -7 9 -11 10 -8
9 50 9 54 -1 40 -8 -13 -13 -13 -32 -1 -18 10 -20 10 -10 0 16 -17 15 -26 -2
-26 -8 0 -14 5 -13 11 1 6 -4 10 -12 8 -7 -1 -19 3 -27 9 -9 7 -14 8 -14 1 0
-6 6 -13 13 -15 9 -4 9 -6 -1 -6 -8 -1 -10 -6 -6 -13 4 -7 -3 -3 -15 10 -12
12 -24 22 -27 22 -2 0 -9 -10 -14 -22 -7 -18 -9 -19 -9 -5 -1 10 -9 17 -21 17
-11 0 -20 5 -20 11 0 5 -4 7 -10 4 -5 -3 -10 -1 -10 5 0 6 -4 8 -10 5 -5 -3
-10 -1 -10 6 0 7 -3 9 -6 6 -4 -3 -14 -3 -23 2 -9 5 -29 11 -44 15 -22 5 -27
4 -21 -6 6 -10 5 -10 -7 -2 -15 13 -263 14 -275 1 -4 -4 -13 -2 -21 4 -10 9
-13 8 -13 -2 0 -9 -3 -10 -8 -4 -9 13 -142 14 -142 2 0 -5 -8 -3 -17 4 -14 12
-16 12 -8 0 6 -11 5 -12 -6 -5 -19 12 -52 12 -61 -1 -5 -7 -8 -7 -8 0 0 13
-129 14 -149 1 -9 -6 -12 -5 -8 1 17 27 -148 -4 -177 -32 -8 -8 -18 -15 -22
-15 -4 0 -17 -11 -29 -24 -13 -14 -26 -22 -31 -18 -4 4 -4 2 -1 -4 3 -6 -5
-22 -18 -36 -13 -14 -21 -29 -18 -32 4 -4 -4 -5 -18 -3 -13 2 -25 9 -25 15 -1
7 -3 15 -4 20 -1 4 -2 11 -1 15 1 5 -3 6 -8 3 -5 -4 -12 0 -14 6 -4 10 -6 10
-6 1 -1 -7 -5 -13 -11 -13 -5 0 -7 8 -4 18 4 11 3 13 -3 5 -9 -13 -53 -14 -53
-1 0 4 -4 8 -10 8 -5 0 -7 -7 -3 -16 3 -8 12 -13 19 -10 8 3 14 1 14 -4 0 -17
-29 -11 -38 8 -5 9 -8 27 -6 39 3 15 -1 20 -14 18 -9 -1 -26 2 -37 8 -30 17
-45 17 -45 1 0 -8 -4 -14 -10 -14 -5 0 -7 7 -4 15 4 8 2 15 -2 16 -5 0 -18 2
-29 4 -11 3 -26 -3 -34 -13 -12 -15 -12 -14 -6 8 7 23 7 24 -10 10 -17 -13
-18 -13 -13 0 4 11 -1 15 -17 15 -13 0 -21 -3 -19 -7 2 -4 0 -9 -6 -13 -6 -3
-10 4 -11 17 0 16 -2 19 -7 8 -4 -8 -17 -16 -29 -16 -18 -1 -20 2 -13 15 6 13
4 17 -11 18 -10 1 -19 -3 -19 -8 0 -6 6 -7 13 -3 7 4 7 2 -2 -7 -10 -11 -15
-11 -18 -1 -3 6 -9 12 -14 12 -6 0 -7 -5 -3 -11 4 -7 1 -10 -7 -7 -8 3 -13 11
-11 18 3 11 0 11 -12 0 -9 -7 -16 -9 -16 -4 0 4 -7 -1 -15 -12 -15 -19 -15
-19 -8 1 6 18 5 19 -13 5 -15 -11 -16 -11 -6 0 18 20 15 26 -12 26 -15 0 -22
-5 -19 -13 3 -7 0 -13 -6 -13 -6 0 -12 5 -12 10 -1 6 -2 14 -3 19 0 5 -5 13
-10 18 -5 5 -6 3 -2 -4 4 -7 2 -13 -4 -13 -8 0 -8 -6 0 -22 11 -22 10 -22 -4
-4 -16 20 -51 33 -40 15 3 -5 0 -9 -5 -9 -6 0 -11 8 -12 18 0 14 -2 14 -9 -3
-5 -11 -9 -15 -9 -8 -1 7 -11 10 -27 7 -36 -7 -36 -7 -59 -5 -17 1 -18 3 -5
12 12 9 12 10 -4 5 -10 -4 -26 -1 -34 6 -13 11 -14 11 -7 -1 6 -11 3 -13 -13
-9 -12 4 -25 1 -29 -4 -3 -6 -2 -8 3 -5 6 3 16 1 24 -5 12 -8 12 -9 -2 -4 -11
3 -18 0 -18 -7 0 -7 -5 -4 -11 6 -12 20 -31 23 -23 3 7 -18 -12 -30 -22 -15
-5 8 -3 9 6 4 9 -6 11 -4 6 4 -5 7 -11 10 -14 7 -3 -3 -10 -2 -16 4 -8 6 -12
2 -13 -12 -1 -12 -7 -26 -14 -32 -8 -8 -10 -5 -4 14 5 19 4 21 -4 10 -8 -11
-11 -12 -11 -2 0 7 -5 10 -11 6 -8 -4 -7 -9 2 -15 8 -5 10 -9 5 -9 -5 0 -2 -8
5 -17 10 -14 8 -13 -10 2 -14 11 -21 14 -16 6 6 -11 4 -13 -9 -8 -10 4 -15 3
-11 -3 3 -6 -1 -10 -10 -10 -9 0 -13 5 -10 10 5 9 -15 15 -37 11 -5 0 -8 3 -8
8 0 14 -64 22 -197 25 -77 1 -120 -1 -116 -7 4 -6 1 -7 -8 -1 -21 13 -391 13
-408 0 -11 -8 -13 -8 -8 0 5 8 -17 10 -76 8 -107 -5 -117 -7 -117 -17 0 -4 -4
-6 -9 -3 -10 6 -61 -16 -61 -26 0 -5 -5 -8 -11 -8 -5 0 -7 5 -4 11 4 6 -2 5
-14 -3 -17 -10 -23 -10 -33 0 -11 11 -10 12 3 7 10 -4 20 -1 25 6 4 7 3 10 -3
6 -6 -4 -17 1 -24 10 -8 10 -9 14 -2 10 6 -4 15 -3 18 3 4 6 1 9 -7 8 -7 -2
-12 2 -11 8 1 6 -4 11 -11 11 -7 0 -13 -6 -13 -13 0 -7 5 -10 10 -7 6 3 7 1 3
-6 -9 -14 -26 -5 -26 15 0 17 -16 19 -26 2 -5 -7 -3 -8 6 -3 8 5 11 4 6 -3 -4
-6 -13 -9 -21 -6 -8 4 -13 10 -10 14 3 5 1 11 -4 14 -5 4 -13 1 -17 -5 -5 -8
-3 -9 7 -4 8 5 10 4 6 0 -12 -14 -39 -15 -34 -2 3 8 -8 12 -32 11 -20 -1 -40
1 -46 4 -5 3 -18 7 -27 7 -14 1 -15 -1 -6 -12 8 -11 7 -12 -6 -7 -9 3 -16 10
-16 14 0 13 -33 5 -38 -9 -3 -8 -9 -6 -19 6 -8 10 -12 12 -8 6 3 -7 2 -13 -4
-13 -5 0 -12 6 -14 13 -4 10 -6 10 -6 0 -1 -7 -6 -13 -12 -13 -5 0 -7 5 -4 10
3 6 1 10 -4 10 -6 0 -11 -6 -11 -12 0 -9 -4 -8 -10 2 -8 13 -10 13 -10 -2 0
-9 -5 -20 -12 -24 -7 -4 -8 -3 -4 4 5 8 -1 12 -14 12 -12 0 -19 -4 -16 -8 3
-5 -1 -9 -9 -9 -8 0 -12 4 -10 8 3 3 -7 9 -22 12 -26 5 -26 4 -8 -9 10 -8 14
-14 8 -14 -6 0 -23 10 -39 22 -15 13 -25 17 -21 11 4 -6 3 -14 -2 -18 -5 -3
-14 2 -19 11 -8 15 -10 14 -17 -2 -7 -18 -8 -18 -15 1 -8 17 -9 18 -9 2z m396
-19 c-3 -8 -6 -5 -6 6 -1 11 2 17 5 13 3 -3 4 -12 1 -19z m1561 -13 c-3 -3 -9
2 -12 12 -6 14 -5 15 5 6 7 -7 10 -15 7 -18z m-1373 -33 c-3 -3 -11 0 -18 7
-9 10 -8 11 6 5 10 -3 15 -9 12 -12z m1865 -2 c0 -5 -2 -10 -4 -10 -3 0 -8 5
-11 10 -3 6 -1 10 4 10 6 0 11 -4 11 -10z m-76 -8 c3 -5 -1 -9 -9 -9 -8 0 -12
4 -9 9 3 4 7 8 9 8 2 0 6 -4 9 -8z m269 -25 c4 3 7 -3 7 -15 0 -12 -5 -22 -11
-22 -5 0 -8 4 -4 9 3 6 -2 14 -12 19 -12 7 -20 6 -29 -5 -9 -13 -10 -12 -8 8
1 13 3 25 3 27 1 1 11 -4 24 -13 13 -8 27 -12 30 -8z m-873 3 c0 -5 -2 -10 -4
-10 -3 0 -8 5 -11 10 -3 6 -1 10 4 10 6 0 11 -4 11 -10z m2300 -16 c0 -22 -16
-17 -17 6 -1 11 2 18 8 15 5 -4 9 -13 9 -21z m66 8 c0 -10 -6 -19 -13 -19 -17
0 -8 28 12 37 1 0 1 -8 1 -18z m1353 -25 c8 -10 7 -14 -2 -14 -8 0 -14 6 -14
14 0 7 1 13 2 13 2 0 8 -6 14 -13z m-124 -7 c3 -5 1 -10 -4 -10 -6 0 -11 5
-11 10 0 6 2 10 4 10 3 0 8 -4 11 -10z m475 -6 c0 -8 -19 -13 -24 -6 -3 5 1 9
9 9 8 0 15 -2 15 -3z m-3055 -42 c-3 -3 0 -11 7 -19 8 -11 7 -12 -6 -7 -9 3
-15 14 -14 23 2 9 -3 15 -10 13 -8 -1 -11 2 -7 8 5 8 11 7 21 -1 8 -6 12 -14
9 -17z m2345 8 c0 -5 -2 -10 -4 -10 -3 0 -8 5 -11 10 -3 6 -1 10 4 10 6 0 11
-4 11 -10z m-380 -4 c0 -3 -4 -8 -10 -11 -5 -3 -10 -1 -10 4 0 6 5 11 10 11 6
0 10 -2 10 -4z m-1922 -41 c-2 -1 -14 -8 -28 -15 l-25 -13 20 20 c11 11 24 18
28 16 5 -3 7 -6 5 -8z m3128 2 c4 -4 0 -7 -9 -7 -9 0 -18 4 -21 9 -7 10 20 9
30 -2z m-931 -16 c3 -5 2 -12 -3 -15 -5 -3 -9 1 -9 9 0 17 3 19 12 6z m-6015
-21 c0 -5 -5 -10 -11 -10 -5 0 -7 5 -4 10 3 6 8 10 11 10 2 0 4 -4 4 -10z
m-324 -642 c4 -7 4 -10 -1 -6 -4 4 -15 2 -24 -5 -14 -11 -14 -10 -2 6 16 20
18 21 27 5z m7477 -373 c-3 -9 -8 -14 -10 -11 -3 3 -2 9 2 15 9 16 15 13 8 -4z
m52 -146 c-4 -5 -12 -9 -18 -8 -9 0 -8 2 1 6 6 2 9 10 6 15 -4 7 -2 8 5 4 6
-4 9 -12 6 -17z m-45 -273 c0 -3 -4 -8 -10 -11 -5 -3 -10 -1 -10 4 0 6 5 11
10 11 6 0 10 -2 10 -4z m-7625 -445 c3 -5 2 -12 -3 -15 -5 -3 -9 1 -9 9 0 17
3 19 12 6z m-25 -21 c0 -5 -2 -10 -4 -10 -3 0 -8 5 -11 10 -3 6 -1 10 4 10 6
0 11 -4 11 -10z m-262 -362 c-2 -7 4 -11 12 -10 8 2 11 0 7 -4 -22 -22 -38 -9
-28 24 3 9 11 0 9 -10z m162 -192 c0 -2 -7 -7 -16 -10 -8 -3 -12 -2 -9 4 6 10
25 14 25 6z m27 -1221 c0 -8 -4 -12 -9 -9 -5 3 -6 10 -3 15 9 13 12 11 12 -6z
m7883 -919 c0 -3 -4 -8 -10 -11 -5 -3 -10 -1 -10 4 0 6 5 11 10 11 6 0 10 -2
10 -4z m21 -253 c13 -16 12 -17 -3 -4 -10 7 -18 15 -18 17 0 8 8 3 21 -13z
m-21 -13 c0 -5 -4 -10 -10 -10 -5 0 -10 5 -10 10 0 6 5 10 10 10 6 0 10 -4 10
-10z m-45 -210 c3 -5 1 -10 -4 -10 -6 0 -11 5 -11 10 0 6 2 10 4 10 3 0 8 -4
11 -10z m-7849 -72 c4 -7 3 -8 -5 -4 -29 18 -49 -48 -26 -85 4 -5 0 -6 -8 -3
-28 10 -6 104 24 104 4 0 11 -5 15 -12z m7 -33 c-3 -9 -8 -14 -10 -11 -3 3 -2
9 2 15 9 16 15 13 8 -4z m7812 -375 c-10 -11 -21 -18 -23 -15 -3 3 3 12 14 20
27 20 30 18 9 -5z m-7800 -10 c3 -6 -1 -7 -9 -4 -18 7 -21 14 -7 14 6 0 13 -4
16 -10z m7805 -114 c0 -3 -4 -8 -10 -11 -5 -3 -10 -1 -10 4 0 6 5 11 10 11 6
0 10 -2 10 -4z m-50 -431 c0 -1 -7 -8 -15 -15 -13 -11 -14 -10 -9 5 6 14 4 16
-6 10 -8 -5 -11 -4 -6 3 5 9 36 7 36 -3z m-43 -37 c-3 -8 -6 -5 -6 6 -1 11 2
17 5 13 3 -3 4 -12 1 -19z m-4 -33 c-3 -9 -8 -14 -10 -11 -3 3 -2 9 2 15 9 16
15 13 8 -4z m3 -107 c4 -7 4 -10 -1 -6 -4 4 -15 2 -24 -5 -14 -11 -14 -10 -2
6 16 20 18 21 27 5z m-7671 -278 c3 -5 1 -10 -4 -10 -6 0 -11 5 -11 10 0 6 2
10 4 10 3 0 8 -4 11 -10z m7535 -500 c0 -5 -5 -10 -11 -10 -5 0 -7 5 -4 10 3
6 8 10 11 10 2 0 4 -4 4 -10z m-1 -82 c-5 -10 -11 -18 -12 -18 -2 0 -3 8 -3
18 0 10 6 19 13 19 8 0 9 -6 2 -19z m-84 -286 c-3 -3 -11 0 -18 7 -9 10 -8 11
6 5 10 -3 15 -9 12 -12z m-7134 -115 c-10 -9 -11 -8 -5 6 3 10 9 15 12 12 3
-3 0 -11 -7 -18z m399 -337 c0 -5 -2 -10 -4 -10 -3 0 -8 5 -11 10 -3 6 -1 10
4 10 6 0 11 -4 11 -10z m160 -18 c0 -5 -7 -9 -15 -9 -8 0 -12 4 -9 9 3 4 9 8
15 8 5 0 9 -4 9 -8z m4575 -12 c3 -5 1 -10 -4 -10 -6 0 -11 5 -11 10 0 6 2 10
4 10 3 0 8 -4 11 -10z m-4184 -23 c-10 -9 -11 -8 -5 6 3 10 9 15 12 12 3 -3 0
-11 -7 -18z m63 15 c3 -5 -1 -9 -9 -9 -8 0 -12 4 -9 9 3 4 7 8 9 8 2 0 6 -4 9
-8z m50 -18 c3 -8 2 -12 -4 -9 -6 3 -10 10 -10 16 0 14 7 11 14 -7z m5441 6
c-3 -5 -1 -10 4 -10 6 0 11 5 11 12 0 6 3 8 6 5 4 -4 1 -14 -6 -22 -10 -12
-15 -13 -21 -3 -7 12 -3 28 7 28 3 0 2 -4 -1 -10z m-893 -22 c-7 -7 -12 -8
-12 -2 0 14 12 26 19 19 2 -3 -1 -11 -7 -17z m1002 10 c-3 -4 -9 -8 -15 -8 -5
0 -9 4 -9 8 0 5 7 9 15 9 8 0 12 -4 9 -9z m-1450 -14 c3 -8 2 -12 -4 -9 -6 3
-10 10 -10 16 0 14 7 11 14 -7z m-124 2 c0 -3 -4 -8 -10 -11 -5 -3 -10 -1 -10
4 0 6 5 11 10 11 6 0 10 -2 10 -4z m100 -4 c0 -5 -7 -9 -15 -9 -8 0 -12 4 -9
9 3 4 9 8 15 8 5 0 9 -4 9 -8z m-440 -27 c0 -8 -4 -15 -10 -15 -5 0 -7 7 -4
15 4 8 8 15 10 15 2 0 4 -7 4 -15z m140 11 c0 -3 -4 -8 -10 -11 -5 -3 -10 -1
-10 4 0 6 5 11 10 11 6 0 10 -2 10 -4z m80 -6 c0 -5 -5 -10 -11 -10 -5 0 -7 5
-4 10 3 6 8 10 11 10 2 0 4 -4 4 -10z m55 0 c3 -5 1 -10 -4 -10 -6 0 -11 5
-11 10 0 6 2 10 4 10 3 0 8 -4 11 -10z m-3105 -25 c0 -8 -2 -15 -4 -15 -2 0
-6 7 -10 15 -3 8 -1 15 4 15 6 0 10 -7 10 -15z m114 -27 c-9 -14 -23 2 -17 18
4 12 8 13 14 3 4 -7 5 -17 3 -21z m-369 12 c3 -5 1 -10 -4 -10 -6 0 -11 5 -11
10 0 6 2 10 4 10 3 0 8 -4 11 -10z m51 -7 c-2 -15 -26 -41 -26 -29 0 5 -7 2
-17 -5 -15 -13 -15 -12 -3 11 8 15 15 20 18 12 2 -6 8 -9 13 -6 6 4 6 10 0 18
-8 9 -7 13 3 13 8 0 13 -6 12 -14z m685 -6 c-10 -9 -11 -8 -5 6 3 10 9 15 12
12 3 -3 0 -11 -7 -18z m2084 13 c3 -5 1 -10 -4 -10 -6 0 -11 5 -11 10 0 6 2
10 4 10 3 0 8 -4 11 -10z m53 -16 c-4 -11 -28 -14 -28 -4 0 8 22 20 28 14 2
-1 2 -6 0 -10z m-2908 -4 c0 -5 -2 -10 -4 -10 -3 0 -8 5 -11 10 -3 6 -1 10 4
10 6 0 11 -4 11 -10z m2720 6 c0 -3 -4 -8 -10 -11 -5 -3 -10 -1 -10 4 0 6 5
11 10 11 6 0 10 -2 10 -4z m45 -15 c3 -6 -3 -15 -14 -21 -24 -12 -42 7 -20 21
18 11 26 11 34 0z m-2773 -15 c7 4 8 2 4 -5 -9 -13 -26 -5 -25 12 0 9 2 8 6
-1 2 -6 10 -9 15 -6z m825 -11 c0 -17 -13 -20 -21 -6 -4 5 0 12 6 14 7 3 13 6
14 6 0 1 1 -6 1 -14z m1575 -17 c-15 -15 -16 -32 -2 -23 6 3 10 2 10 -3 0 -18
-29 -21 -41 -4 -8 9 -9 14 -5 10 5 -5 15 1 23 12 8 11 17 20 21 20 3 0 1 -5
-6 -12z m-1537 -8 c3 -5 3 -10 -2 -11 -4 0 -16 -2 -25 -4 -20 -4 -24 11 -5 18
19 8 25 8 32 -3z m1011 -18 c-17 -16 -18 -16 -5 5 7 12 15 20 18 17 3 -2 -3
-12 -13 -22z m-912 -4 c-3 -5 -10 -5 -16 -2 -7 5 -9 2 -5 -8 6 -18 -1 -30 -14
-22 -13 8 7 41 25 41 8 0 13 -4 10 -9z m1170 4 c2 -4 -4 -8 -14 -8 -10 0 -16
4 -14 8 3 4 9 8 14 8 5 0 11 -4 14 -8z m106 -22 c-8 -16 -15 -19 -24 -11 -7 6
-17 8 -22 4 -5 -4 -3 -1 4 7 11 12 14 13 21 1 7 -11 10 -9 16 8 4 13 9 20 12
18 2 -3 -1 -15 -7 -27z m-995 -8 c-3 -3 -11 0 -18 7 -9 10 -8 11 6 5 10 -3 15
-9 12 -12z m28 -5 c3 -8 -1 -14 -8 -14 -7 0 -11 6 -8 14 3 7 6 13 8 13 2 0 5
-6 8 -13z m180 -17 c-3 -12 -8 -19 -11 -16 -5 6 5 36 12 36 2 0 2 -9 -1 -20z
m44 1 c-1 -15 -4 -17 -14 -9 -15 12 -17 22 -3 13 6 -3 10 -1 10 4 0 6 2 11 4
11 3 0 4 -9 3 -19z m247 10 c3 -5 0 -11 -8 -14 -15 -6 -26 1 -26 15 0 11 27
10 34 -1z m-317 -16 c0 -8 -4 -12 -9 -9 -4 3 -8 9 -8 15 0 5 4 9 8 9 5 0 9 -7
9 -15z m113 -4 c0 -4 -6 -8 -13 -8 -8 0 -14 6 -14 13 0 7 6 10 14 7 7 -3 13
-8 13 -12z m73 6 c3 -8 -1 -14 -8 -14 -7 0 -11 6 -8 14 3 7 6 13 8 13 2 0 5
-6 8 -13z"/>
<path d="M5745 760 c-3 -6 1 -7 9 -4 18 7 21 14 7 14 -6 0 -13 -4 -16 -10z"/>
<path d="M4623 9075 c0 -7 6 -11 14 -8 7 3 13 6 13 8 0 2 -6 5 -13 8 -8 3 -14
-1 -14 -8z"/>
<path d="M4866 9062 c-3 -5 1 -9 9 -9 8 0 15 4 15 9 0 4 -4 8 -9 8 -6 0 -12
-4 -15 -8z"/>
<path d="M2003 9017 c0 -8 6 -14 14 -14 9 0 10 4 2 14 -6 7 -12 13 -14 13 -1
0 -2 -6 -2 -13z"/>
<path d="M2304 9002 c4 -3 14 -7 22 -8 9 -1 13 0 10 4 -4 3 -14 7 -22 8 -9 1
-13 0 -10 -4z"/>
<path d="M1923 8985 c0 -8 4 -12 9 -9 5 3 6 10 3 15 -9 13 -12 11 -12 -6z"/>
<path d="M2145 8960 c3 -5 8 -10 11 -10 2 0 4 5 4 10 0 6 -5 10 -11 10 -5 0
-7 -4 -4 -10z"/>
<path d="M5310 8966 c0 -2 7 -7 16 -10 8 -3 12 -2 9 4 -6 10 -25 14 -25 6z"/>
<path d="M6872 8961 c2 -7 7 -12 11 -12 12 1 9 15 -3 20 -7 2 -11 -2 -8 -8z"/>
<path d="M7397 8917 c-3 -8 1 -14 8 -14 7 0 11 6 8 14 -3 7 -6 13 -8 13 -2 0
-5 -6 -8 -13z"/>
<path d="M7437 8923 c-4 -3 -7 -11 -7 -17 0 -6 5 -5 12 2 6 6 9 14 7 17 -3 3
-9 2 -12 -2z"/>
<path d="M7465 8920 c-3 -6 1 -7 9 -4 18 7 21 14 7 14 -6 0 -13 -4 -16 -10z"/>
<path d="M8596 8842 c-3 -4 4 -9 15 -9 23 -2 25 3 4 10 -8 4 -16 3 -19 -1z"/>
<path d="M1487 8615 c-4 -8 -1 -17 6 -21 7 -4 9 -4 5 1 -4 4 -3 14 3 22 7 8 8
13 1 13 -5 0 -12 -7 -15 -15z"/>
<path d="M1353 8295 c0 -8 4 -12 9 -9 5 3 6 10 3 15 -9 13 -12 11 -12 -6z"/>
<path d="M8696 8281 c-4 -5 -2 -12 3 -15 5 -4 12 -2 15 3 4 5 2 12 -3 15 -5 4
-12 2 -15 -3z"/>
<path d="M1285 8241 c3 -5 -2 -12 -10 -14 -12 -4 -12 -5 1 -3 19 1 32 26 14
26 -6 0 -9 -4 -5 -9z"/>
<path d="M8725 8220 c-3 -5 -1 -10 4 -10 6 0 11 5 11 10 0 6 -2 10 -4 10 -3 0
-8 -4 -11 -10z"/>
<path d="M1105 7891 c-3 -5 -2 -12 3 -15 5 -3 9 1 9 9 0 17 -3 19 -12 6z"/>
<path d="M1090 7283 c0 -6 8 -17 18 -24 16 -13 16 -13 2 6 -8 11 -16 22 -17
24 -2 2 -3 0 -3 -6z"/>
<path d="M1113 7065 c0 -8 4 -12 9 -9 5 3 6 10 3 15 -9 13 -12 11 -12 -6z"/>
<path d="M8745 7001 c-3 -5 0 -13 6 -17 7 -4 9 -3 5 4 -3 5 0 13 6 15 9 4 10
6 1 6 -6 1 -14 -3 -18 -8z"/>
<path d="M1113 6975 c0 -8 4 -12 9 -9 5 3 6 10 3 15 -9 13 -12 11 -12 -6z"/>
<path d="M1065 6091 c-3 -5 -2 -12 3 -15 5 -3 9 1 9 9 0 17 -3 19 -12 6z"/>
<path d="M1055 6030 c-3 -5 -2 -10 4 -10 5 0 13 5 16 10 3 6 2 10 -4 10 -5 0
-13 -4 -16 -10z"/>
<path d="M8916 5033 c-6 -14 -5 -15 5 -6 7 7 10 15 7 18 -3 3 -9 -2 -12 -12z"/>
<path d="M1038 4813 c7 -3 16 -2 19 1 4 3 -2 6 -13 5 -11 0 -14 -3 -6 -6z"/>
<path d="M8947 4264 c3 -7 9 -14 14 -14 14 0 10 17 -5 23 -10 4 -13 1 -9 -9z"/>
<path d="M9056 4242 c-3 -5 1 -9 9 -9 8 0 12 4 9 9 -3 4 -7 8 -9 8 -2 0 -6 -4
-9 -8z"/>
<path d="M984 3489 c-3 -6 -2 -15 3 -20 5 -5 9 -1 9 11 0 23 -2 24 -12 9z"/>
<path d="M8908 3473 c7 -3 16 -2 19 1 4 3 -2 6 -13 5 -11 0 -14 -3 -6 -6z"/>
<path d="M990 3440 c0 -5 5 -10 11 -10 5 0 7 5 4 10 -3 6 -8 10 -11 10 -2 0
-4 -4 -4 -10z"/>
<path d="M8815 2780 c3 -5 8 -10 11 -10 2 0 4 5 4 10 0 6 -5 10 -11 10 -5 0
-7 -4 -4 -10z"/>
<path d="M1015 2760 c-3 -5 -2 -10 4 -10 5 0 13 5 16 10 3 6 2 10 -4 10 -5 0
-13 -4 -16 -10z"/>
<path d="M8790 2760 c0 -5 5 -10 10 -10 6 0 10 5 10 10 0 6 -4 10 -10 10 -5 0
-10 -4 -10 -10z"/>
<path d="M8820 2746 c0 -2 7 -6 15 -10 8 -3 15 -1 15 4 0 6 -7 10 -15 10 -8 0
-15 -2 -15 -4z"/>
<path d="M8855 2560 c3 -5 8 -10 11 -10 2 0 4 5 4 10 0 6 -5 10 -11 10 -5 0
-7 -4 -4 -10z"/>
<path d="M8773 2230 c1 -11 5 -20 9 -20 3 0 6 9 5 20 -1 11 -5 20 -9 20 -3 0
-6 -9 -5 -20z"/>
<path d="M8664 1809 c-3 -6 -2 -15 4 -21 6 -6 12 -6 17 3 5 8 4 10 -3 5 -7 -4
-12 -3 -12 3 0 5 6 12 13 14 9 4 9 6 0 6 -6 1 -15 -4 -19 -10z"/>
<path d="M1340 1560 c0 -5 5 -10 11 -10 5 0 7 5 4 10 -3 6 -8 10 -11 10 -2 0
-4 -4 -4 -10z"/>
<path d="M1410 1246 c0 -2 7 -7 16 -10 8 -3 12 -2 9 4 -6 10 -25 14 -25 6z"/>
<path d="M8216 955 c-3 -8 -1 -15 4 -15 6 0 10 7 10 15 0 8 -2 15 -4 15 -2 0
-6 -7 -10 -15z"/>
<path d="M7679 893 c-13 -16 -12 -17 4 -4 16 13 21 21 13 21 -2 0 -10 -8 -17
-17z"/>
<path d="M2757 893 c-10 -9 -9 -23 1 -23 5 0 9 7 9 15 0 17 -1 18 -10 8z"/>
<path d="M7301 891 c-8 -5 -9 -11 -3 -15 5 -3 12 1 16 9 6 17 6 18 -13 6z"/>
<path d="M8112 878 c-18 -18 -14 -30 6 -20 9 5 24 7 32 4 16 -5 15 -4 -11 16
-12 9 -18 9 -27 0z"/>
<path d="M2340 871 c0 -7 -5 -9 -12 -5 -7 5 -8 3 -3 -5 5 -9 10 -10 18 -2 6 6
8 14 4 18 -4 3 -7 1 -7 -6z"/>
<path d="M2720 860 c-9 -6 -10 -10 -3 -10 6 0 15 5 18 10 8 12 4 12 -15 0z"/>
<path d="M7335 860 c-3 -6 1 -7 9 -4 18 7 21 14 7 14 -6 0 -13 -4 -16 -10z"/>
<path d="M7846 862 c-3 -5 1 -9 9 -9 8 0 12 4 9 9 -3 4 -7 8 -9 8 -2 0 -6 -4
-9 -8z"/>
<path d="M6987 853 c-13 -12 -7 -22 12 -20 15 1 17 4 9 14 -12 15 -13 15 -21
6z"/>
<path d="M6613 837 c-3 -6 -1 -7 5 -3 5 3 12 1 14 -6 3 -8 6 -7 10 3 7 17 -19
22 -29 6z"/>
<path d="M6779 836 c0 -1 -2 -9 -4 -19 -3 -15 -1 -16 12 -6 12 10 16 10 24 -2
6 -10 9 -11 9 -1 0 8 5 10 13 6 9 -5 9 -4 0 6 -10 10 -48 22 -54 16z"/>
<path d="M8029 823 c-13 -16 -12 -17 4 -4 16 13 21 21 13 21 -2 0 -10 -8 -17
-17z"/>
<path d="M3142 810 c2 -6 7 -11 12 -10 5 1 13 -4 17 -12 6 -9 9 -9 9 -1 0 7
-10 17 -21 24 -16 8 -20 8 -17 -1z"/>
<path d="M6751 804 c0 -11 3 -14 6 -6 3 7 2 16 -1 19 -3 4 -6 -2 -5 -13z"/>
<path d="M6028 796 c4 -6 7 -14 7 -18 0 -3 4 -10 9 -15 5 -4 6 -3 3 3 -7 13
16 37 26 29 4 -3 5 -2 2 2 -10 12 -55 11 -47 -1z"/>
<path d="M6315 801 c-3 -5 -2 -12 3 -15 5 -3 9 1 9 9 0 17 -3 19 -12 6z"/>
<path d="M3229 763 c-13 -16 -12 -17 4 -4 16 13 21 21 13 21 -2 0 -10 -8 -17
-17z"/>
<path d="M3666 762 c-3 -5 1 -9 9 -9 8 0 12 4 9 9 -3 4 -7 8 -9 8 -2 0 -6 -4
-9 -8z"/>
<path d="M5681 751 c-7 -5 -9 -11 -4 -14 5 -3 15 -2 22 2 7 5 9 11 4 14 -5 3
-15 2 -22 -2z"/>
<path d="M3726 742 c-3 -5 1 -9 9 -9 8 0 12 4 9 9 -3 4 -7 8 -9 8 -2 0 -6 -4
-9 -8z"/>
<path d="M5563 715 c-16 -18 -17 -28 -1 -19 7 5 9 2 6 -8 -4 -8 -1 -15 7 -15
7 0 11 6 8 13 -3 9 2 12 17 9 22 -4 22 -4 5 15 -21 23 -26 24 -42 5z m31 -3
c3 -5 -1 -9 -9 -9 -8 0 -12 4 -9 9 3 4 7 8 9 8 2 0 6 -4 9 -8z"/>
<path d="M5695 721 c-3 -5 0 -13 6 -17 7 -4 9 -3 5 4 -3 5 0 13 6 15 9 4 10 6
1 6 -6 1 -14 -3 -18 -8z"/>
<path d="M5814 722 c4 -3 14 -7 22 -8 9 -1 13 0 10 4 -4 3 -14 7 -22 8 -9 1
-13 0 -10 -4z"/>
<path d="M5509 689 c-13 -11 -19 -18 -12 -15 6 4 13 3 16 -1 2 -5 2 -2 1 5 -2
6 1 12 6 12 9 0 14 -15 11 -33 -1 -5 3 -6 9 -2 7 4 7 12 0 24 -5 10 -6 21 -3
25 16 16 -7 4 -28 -15z"/>
<path d="M5300 672 c-13 -14 -12 -15 2 -10 8 4 22 1 29 -5 9 -9 9 -6 -1 8 -8
11 -14 21 -15 21 0 1 -7 -5 -15 -14z"/>
<path d="M5330 686 c0 -2 8 -10 18 -17 15 -13 16 -12 3 4 -13 16 -21 21 -21
13z"/>
<path d="M4913 668 c-17 -22 -25 -44 -9 -24 9 11 19 17 22 13 4 -4 1 -15 -7
-24 -12 -16 -12 -17 2 -6 9 7 19 9 24 5 4 -4 2 4 -5 18 -17 33 -16 32 -27 18z"/>
<path d="M5067 663 c5 -12 7 -12 14 -1 7 10 9 10 9 1 0 -7 5 -13 12 -13 9 0 9
3 0 12 -18 18 -42 19 -35 1z"/>
<path d="M4328 649 c14 -15 16 -33 3 -24 -5 3 -12 1 -15 -4 -4 -5 2 -8 11 -7
24 4 28 32 6 40 -14 6 -16 5 -5 -5z"/>
<path d="M5170 639 c0 -5 5 -7 10 -4 6 3 10 8 10 11 0 2 -4 4 -10 4 -5 0 -10
-5 -10 -11z"/>
<path d="M5250 639 c0 -5 5 -7 10 -4 6 3 10 8 10 11 0 2 -4 4 -10 4 -5 0 -10
-5 -10 -11z"/>
<path d="M4147 619 c7 -7 15 -10 18 -7 3 3 -2 9 -12 12 -14 6 -15 5 -6 -5z"/>
<path d="M4636 622 c-3 -5 1 -9 9 -9 8 0 12 4 9 9 -3 4 -7 8 -9 8 -2 0 -6 -4
-9 -8z"/>
<path d="M4530 599 c0 -5 5 -7 10 -4 6 3 10 8 10 11 0 2 -4 4 -10 4 -5 0 -10
-5 -10 -11z"/>
</g>
</svg>
